{
	"asset":{
		"generator":"Khronos glTF Blender I/O v3.5.30",
		"version":"2.0"
	},
	"scene":0,
	"scenes":[
		{
			"name":"Scene",
			"nodes":[
				0
			]
		}
	],
	"nodes":[
		{
			"mesh":0,
			"name":"Cube"
		}
	],
	"materials":[
		{
			"doubleSided":true,
			"name":"Material",
			"pbrMetallicRoughness":{
				"baseColorFactor":[
					0.800000011920929,
					0.800000011920929,
					0.800000011920929,
					1
				],
				"metallicFactor":0,
				"roughnessFactor":0.5
			}
		}
	],
	"meshes":[
		{
			"name":"Cube",
			"primitives":[
				{
					"attributes":{
						"POSITION":0,
						"TEXCOORD_0":1,
						"NORMAL":2
					},
					"indices":3,
					"material":0
				}
			]
		}
	],
	"accessors":[
		{
			"bufferView":0,
			"componentType":5126,
			"count":142,
			"max":[
				1.505340814590454,
				1.698189377784729,
				1.1160285472869873
			],
			"min":[
				-1.505340814590454,
				-1,
				-1.1160285472869873
			],
			"type":"VEC3"
		},
		{
			"bufferView":1,
			"componentType":5126,
			"count":142,
			"type":"VEC2"
		},
		{
			"bufferView":2,
			"componentType":5126,
			"count":142,
			"type":"VEC3"
		},
		{
			"bufferView":3,
			"componentType":5123,
			"count":216,
			"type":"SCALAR"
		}
	],
	"bufferViews":[
		{
			"buffer":0,
			"byteLength":1704,
			"byteOffset":0,
			"target":34962
		},
		{
			"buffer":0,
			"byteLength":1136,
			"byteOffset":1704,
			"target":34962
		},
		{
			"buffer":0,
			"byteLength":1704,
			"byteOffset":2840,
			"target":34962
		},
		{
			"buffer":0,
			"byteLength":432,
			"byteOffset":4544,
			"target":34963
		}
	],
	"buffers":[
		{
			"byteLength":4976,
			"uri":"data:application/octet-stream;base64,"
		}
	]
}
