# Blender 3.5.1
# www.blender.org
mtllib thingy.mtl
o Cube
v 0.343832 0.106126 -0.213271
v 1.000000 -1.000000 -1.000000
v 0.343832 0.106126 0.213271
v 1.000000 -1.000000 1.000000
v -0.343832 0.106126 -0.213271
v -1.000000 -1.000000 -1.000000
v -0.343832 0.106126 0.213271
v -1.000000 -1.000000 1.000000
v 0.456523 0.879319 -0.198744
v 0.456523 0.879319 0.198744
v -0.649777 0.754898 -0.481731
v -0.649777 0.754898 0.481731
v 0.406700 0.990299 -0.161807
v 0.406700 0.990299 0.161807
v -0.428089 1.248709 -0.317376
v -0.428089 1.248709 0.317376
v 1.505341 1.698189 -1.116029
v 1.505341 1.698189 1.116029
v -1.505341 1.698189 -1.116029
v -1.505341 1.698189 1.116029
v 0.649777 0.754898 -0.481731
v 0.649777 0.754898 0.481731
v -0.649777 0.754898 -0.481731
v 0.649777 0.754898 -0.481731
v 0.649777 0.754898 0.481731
v 0.428089 1.248709 -0.317376
v 0.428089 1.248709 0.317376
v 0.391710 0.740885 -0.403403
v 0.391710 0.740885 0.403403
v 0.217594 1.128732 -0.274316
v 0.217594 1.128732 0.274316
v 0.488573 0.806431 -0.306500
v 0.488573 0.806431 0.306500
v 0.373307 1.063186 -0.221045
v 0.373307 1.063186 0.221045
v 0.368595 0.852252 -0.238759
v 0.368595 0.852252 0.238759
v 0.294471 1.017365 -0.183804
v 0.294471 1.017365 0.183804
vn -0.0000 -0.3824 -0.9240
vn -0.0000 0.5796 0.8149
vn -0.8601 0.5102 -0.0000
vn -0.0000 -1.0000 -0.0000
vn 0.8601 0.5102 -0.0000
vn -0.0000 0.5796 -0.8149
vn -0.0000 0.3158 0.9488
vn -0.0000 -0.3824 0.9240
vn -0.9045 -0.4265 -0.0000
vn 0.9045 -0.4265 -0.0000
vn -0.0000 -0.8715 -0.4905
vn -0.0000 0.3158 -0.9488
vn 0.9123 0.4096 -0.0000
vn -0.9123 0.4096 -0.0000
vn -0.0000 1.0000 -0.0000
vn 0.3851 -0.9229 -0.0000
vn -0.3851 -0.9229 -0.0000
vn -0.0000 -0.8715 0.4905
vn -0.0542 0.9985 -0.0000
vn 0.4952 -0.8688 -0.0000
vn 0.2946 -0.1801 -0.9385
vn 0.2946 -0.1801 0.9385
vn 0.5604 -0.8282 -0.0000
vn 0.3880 0.9217 -0.0000
vn 0.4543 0.4582 0.7640
vn 0.4543 0.4582 -0.7640
vn 0.3568 0.9342 -0.0000
vn 0.5025 -0.8646 -0.0000
vn 0.4653 -0.0844 -0.8811
vn 0.4653 -0.0844 0.8811
vn 0.2942 -0.9557 -0.0000
vn 0.2344 0.9721 -0.0000
vn 0.2698 0.4110 0.8708
vn 0.2698 0.4110 -0.8708
vt 0.625000 0.500000
vt 0.375000 0.500000
vt 0.625000 0.750000
vt 0.375000 0.750000
vt 0.625000 0.250000
vt 0.125000 0.500000
vt 0.375000 0.250000
vt 0.625000 1.000000
vt 0.625000 0.000000
vt 0.375000 1.000000
vt 0.375000 0.000000
vt 0.125000 0.750000
vt 0.625000 0.565997
vt 0.625000 0.684003
vt 0.625000 0.250000
vt 0.625000 1.000000
vt 0.625000 0.000000
vt 0.625000 0.570538
vt 0.625000 0.679462
vt 0.625000 0.250000
vt 0.625000 0.000000
vt 0.625000 1.000000
vt 0.625000 0.500000
vt 0.625000 0.750000
vt 0.875000 0.500000
vt 0.625000 0.250000
vt 0.875000 0.750000
vt 0.625000 0.000000
vt 0.625000 1.000000
vt 0.625000 0.500000
vt 0.625000 0.750000
vt 0.625000 0.250000
vt 0.625000 0.500000
vt 0.625000 0.750000
vt 0.625000 0.500000
vt 0.625000 0.750000
vt 0.625000 0.516923
vt 0.625000 0.733077
vt 0.625000 0.520947
vt 0.625000 0.729053
vt 0.625000 0.539145
vt 0.625000 0.710855
vt 0.625000 0.545412
vt 0.625000 0.704588
vt 0.625000 0.555737
vt 0.625000 0.694263
vt 0.625000 0.561470
vt 0.625000 0.688530
s 0
usemtl Material
f 1/1/1 5/5/1 11/15/1 24/33/1
f 4/4/2 3/3/2 7/8/2 8/10/2
f 8/11/3 7/9/3 5/5/3 6/7/3
f 6/6/4 2/2/4 4/4/4 8/12/4
f 2/2/5 1/1/5 3/3/5 4/4/5
f 6/7/6 5/5/6 1/1/6 2/2/6
f 12/16/7 25/34/7 27/36/7 16/22/7
f 7/8/8 3/3/8 25/34/8 12/16/8
f 5/5/9 7/9/9 12/17/9 11/15/9
f 3/3/10 1/1/10 24/33/10 25/34/10
f 26/35/11 15/20/11 19/26/11 17/23/11
f 24/33/12 11/15/12 15/20/12 26/35/12
f 10/14/13 9/13/13 13/18/13 14/19/13
f 11/15/14 12/17/14 16/21/14 15/20/14
f 17/23/15 19/25/15 20/27/15 18/24/15
f 27/36/16 26/35/16 17/23/16 18/24/16
f 15/20/17 16/21/17 20/28/17 19/26/17
f 16/22/18 27/36/18 18/24/18 20/29/18
f 11/15/15 24/33/15 21/30/15 23/32/15
f 24/33/15 25/34/15 22/31/15 21/30/15
f 28/37/19 29/38/19 25/34/19 24/33/19
f 31/40/20 30/39/20 26/35/20 27/36/20
f 29/38/21 31/40/21 27/36/21 25/34/21
f 30/39/22 28/37/22 24/33/22 26/35/22
f 32/41/23 33/42/23 29/38/23 28/37/23
f 35/44/24 34/43/24 30/39/24 31/40/24
f 33/42/25 35/44/25 31/40/25 29/38/25
f 34/43/26 32/41/26 28/37/26 30/39/26
f 36/45/27 37/46/27 33/42/27 32/41/27
f 39/48/28 38/47/28 34/43/28 35/44/28
f 37/46/29 39/48/29 35/44/29 33/42/29
f 38/47/30 36/45/30 32/41/30 34/43/30
f 9/13/31 10/14/31 37/46/31 36/45/31
f 14/19/32 13/18/32 38/47/32 39/48/32
f 10/14/33 14/19/33 39/48/33 37/46/33
f 13/18/34 9/13/34 36/45/34 38/47/34
